<svg width="328" height="488" viewBox="0 0 328 488" fill="none" xmlns="http://www.w3.org/2000/svg">
<path d="M24 5L53.8196 469.192C53.9211 470.771 55.2313 472 56.8135 472H271.187C272.769 472 274.079 470.771 274.18 469.192L304 5" stroke="#1F2E4A" stroke-width="30" stroke-linecap="round"/>
<path fill-rule="evenodd" clip-rule="evenodd" d="M328 0H0V488H328V0ZM303.795 8.19232L274.18 469.192C274.079 470.771 272.769 472 271.187 472H56.8135C55.2313 472 53.9211 470.771 53.8196 469.192L24.2051 8.19233C24.094 6.46337 25.4664 5 27.1989 5H300.801C302.534 5 303.906 6.46337 303.795 8.19232Z" fill="#1F2E4A"/>
<path d="M24 5L53.8196 469.192C53.9211 470.771 55.2313 472 56.8135 472H271.187C272.769 472 274.079 470.771 274.18 469.192L304 5" stroke="white" stroke-width="10" stroke-linecap="round"/>
</svg>
