<svg width="24" height="36" viewBox="0 0 24 36" fill="none" xmlns="http://www.w3.org/2000/svg">
<path d="M2 2L4.13044 33.8146C4.13743 33.9189 4.22412 34 4.32871 34H19.6713C19.7759 34 19.8626 33.9189 19.8696 33.8146L22 2" stroke="#1F2E4A" stroke-width="2.7193" stroke-linecap="round"/>
<path fill-rule="evenodd" clip-rule="evenodd" d="M24 0H0V36H24V0ZM21.9858 2.28045L19.8696 33.8146C19.8626 33.919 19.7759 34 19.6713 34H4.32869C4.2241 34 4.13742 33.919 4.13041 33.8146L2.01423 2.28044C2.00653 2.16572 2.09751 2.06842 2.2125 2.06842H21.7875C21.9025 2.06842 21.9935 2.16572 21.9858 2.28045Z" fill="#1F2E4A"/>
<path d="M2 2.06848L4.13041 33.8147C4.13742 33.919 4.2241 34.0001 4.32869 34.0001H19.6713C19.7759 34.0001 19.8626 33.919 19.8696 33.8147L22 2.06848" stroke="white" stroke-width="1.63158" stroke-linecap="round"/>
</svg>
