<svg width="41" height="63" viewBox="0 0 41 63" fill="none" xmlns="http://www.w3.org/2000/svg">
<path d="M3 3.12183L6.72749 59.6587C6.74016 59.8507 6.89962 60 7.09209 60H33.9079C34.1004 60 34.2598 59.8507 34.2725 59.6587L38 3.12183" stroke="#1F2E4A" stroke-width="5" stroke-linecap="round"/>
<path fill-rule="evenodd" clip-rule="evenodd" d="M41 0H0V63H41V0ZM37.9743 3.51122L34.2725 59.6587C34.2598 59.8507 34.1004 60 33.9079 60H7.09209C6.89962 60 6.74016 59.8507 6.7275 59.6587L3.02567 3.51121C3.01178 3.30042 3.17901 3.12179 3.39027 3.12179H37.6097C37.821 3.12179 37.9882 3.30042 37.9743 3.51122Z" fill="#1F2E4A"/>
<path d="M3 3.12183L6.72749 59.6587C6.74016 59.8507 6.89962 60 7.09209 60H33.9079C34.1004 60 34.2598 59.8507 34.2725 59.6587L38 3.12183" stroke="white" stroke-width="3" stroke-linecap="round"/>
</svg>
